<?xml version="1.0" encoding="UTF-8"?>
<svg xmlns="http://www.w3.org/2000/svg" xmlns:xlink="http://www.w3.org/1999/xlink" width="375pt" height="374.999991pt" viewBox="0 0 375 374.999991" version="1.2">
<defs>
<clipPath id="clip1">
  <path d="M 345.082031 168.53125 L 374.894531 168.53125 L 374.894531 262 L 345.082031 262 Z M 345.082031 168.53125 "/>
</clipPath>
<clipPath id="clip2">
  <path d="M 24.191406 98.257812 L 350.9375 98.257812 L 350.9375 332.234375 L 24.191406 332.234375 Z M 24.191406 98.257812 "/>
</clipPath>
</defs>
<g id="surface1">
<path style=" stroke:none;fill-rule:nonzero;fill:rgb(49.409485%,85.099792%,34.118652%);fill-opacity:1;" d="M 258.882812 105.632812 L 230.828125 105.632812 L 234.4375 42.414062 L 255.269531 42.414062 L 258.882812 105.632812 "/>
<path style=" stroke:none;fill-rule:nonzero;fill:rgb(49.409485%,85.099792%,34.118652%);fill-opacity:1;" d="M 29.472656 261.9375 L 2.234375 245.425781 C 0.914062 244.625 0.109375 243.195312 0.109375 241.652344 L 0.109375 189.273438 C 0.109375 187.730469 0.914062 186.300781 2.234375 185.5 L 29.472656 168.988281 L 29.472656 261.9375 "/>
<g clip-path="url(#clip1)" clip-rule="nonzero">
<path style=" stroke:none;fill-rule:nonzero;fill:rgb(49.409485%,85.099792%,34.118652%);fill-opacity:1;" d="M 345.535156 168.988281 L 372.777344 185.5 C 374.09375 186.300781 374.902344 187.730469 374.902344 189.273438 L 374.902344 241.652344 C 374.902344 243.195312 374.09375 244.625 372.777344 245.425781 L 345.535156 261.9375 L 345.535156 168.988281 "/>
</g>
<g clip-path="url(#clip2)" clip-rule="nonzero">
<path style=" stroke:none;fill-rule:nonzero;fill:rgb(84.309387%,95.689392%,92.939758%);fill-opacity:1;" d="M 266.148438 332.234375 L 108.863281 332.234375 C 62.15625 332.234375 24.292969 294.382812 24.292969 247.691406 L 24.292969 183.238281 C 24.292969 136.542969 62.15625 98.6875 108.863281 98.6875 L 266.148438 98.6875 C 312.855469 98.6875 350.71875 136.542969 350.71875 183.238281 L 350.71875 247.691406 C 350.71875 294.382812 312.855469 332.234375 266.148438 332.234375 "/>
</g>
<path style=" stroke:none;fill-rule:nonzero;fill:rgb(25.099182%,68.629456%,57.249451%);fill-opacity:1;" d="M 274.304688 304.984375 L 100.703125 304.984375 C 74.429688 304.984375 53.132812 283.691406 53.132812 257.429688 L 53.132812 173.496094 C 53.132812 147.230469 74.429688 125.941406 100.703125 125.941406 L 274.304688 125.941406 C 300.578125 125.941406 321.878906 147.230469 321.878906 173.496094 L 321.878906 257.429688 C 321.878906 283.691406 300.578125 304.984375 274.304688 304.984375 "/>
<path style=" stroke:none;fill-rule:nonzero;fill:rgb(84.309387%,95.689392%,92.939758%);fill-opacity:1;" d="M 116.1875 212.777344 L 108.542969 205.132812 L 142.878906 170.808594 L 150.523438 178.453125 L 116.1875 212.777344 "/>
<path style=" stroke:none;fill-rule:nonzero;fill:rgb(84.309387%,95.689392%,92.939758%);fill-opacity:1;" d="M 108.542969 178.453125 L 116.1875 170.808594 L 150.523438 205.132812 L 142.878906 212.777344 L 108.542969 178.453125 "/>
<path style=" stroke:none;fill-rule:nonzero;fill:rgb(84.309387%,95.689392%,92.939758%);fill-opacity:1;" d="M 232.128906 212.777344 L 224.488281 205.132812 L 258.820312 170.808594 L 266.464844 178.453125 L 232.128906 212.777344 "/>
<path style=" stroke:none;fill-rule:nonzero;fill:rgb(84.309387%,95.689392%,92.939758%);fill-opacity:1;" d="M 224.488281 178.453125 L 232.128906 170.808594 L 266.464844 205.132812 L 258.820312 212.777344 L 224.488281 178.453125 "/>
<path style=" stroke:none;fill-rule:nonzero;fill:rgb(84.309387%,95.689392%,92.939758%);fill-opacity:1;" d="M 237.269531 254.988281 L 142.074219 254.988281 L 142.074219 248.0625 L 237.269531 248.0625 L 237.269531 254.988281 "/>
<path style=" stroke:none;fill-rule:nonzero;fill:rgb(84.309387%,95.689392%,92.939758%);fill-opacity:1;" d="M 203.101562 254.988281 L 203.101562 265.3125 C 203.101562 270.234375 207.109375 274.238281 212.03125 274.238281 C 216.957031 274.238281 220.964844 270.234375 220.964844 265.3125 L 220.964844 254.988281 Z M 212.03125 281.167969 C 203.289062 281.167969 196.175781 274.054688 196.175781 265.3125 L 196.175781 248.0625 L 227.890625 248.0625 L 227.890625 265.3125 C 227.890625 274.054688 220.777344 281.167969 212.03125 281.167969 "/>
<path style=" stroke:none;fill-rule:nonzero;fill:rgb(84.309387%,95.689392%,92.939758%);fill-opacity:1;" d="M 270.925781 26.066406 C 270.925781 40.460938 259.253906 52.132812 244.851562 52.132812 C 230.457031 52.132812 218.78125 40.460938 218.78125 26.066406 C 218.78125 11.667969 230.457031 0 244.851562 0 C 259.253906 0 270.925781 11.667969 270.925781 26.066406 "/>
</g>
</svg>
