<svg width="188" height="188" viewBox="0 0 188 188" fill="none" xmlns="http://www.w3.org/2000/svg">
<path d="M168.379 146.078H3.35156V66.3984C3.35156 59.6289 8.82422 54.1445 15.5781 54.1445H156.156C162.906 54.1445 168.379 59.6289 168.379 66.3984V146.078Z" fill="#0C262F"/>
<path d="M156.156 146.078H3.35156V66.3984C3.35156 59.6289 8.82422 54.1406 15.5781 54.1406H143.934C150.684 54.1406 156.156 59.6289 156.156 66.3984V146.078Z" fill="#174556"/>
<path d="M15.5781 161.398H156.156C162.906 161.398 168.379 155.91 168.379 149.141V146.078H3.35156V149.141C3.35156 155.91 8.82422 161.398 15.5781 161.398Z" fill="#A5C3DC"/>
<path d="M143.934 161.398H15.5781C8.82422 161.398 3.35156 155.91 3.35156 149.141V146.078H156.156V149.141C156.156 155.91 150.684 161.398 143.934 161.398Z" fill="#D7E6F0"/>
<path d="M67.5312 173.656H95.0352V161.398H67.5312V173.656Z" fill="#A5C3DC"/>
<path d="M110.316 182.852H49.1953V179.785C49.1953 176.402 51.9297 173.656 55.3047 173.656H104.203C107.578 173.656 110.316 176.402 110.316 179.785V182.852Z" fill="#D7E6F0"/>
<path d="M110.316 182.852H91.9766V179.785C91.9766 176.402 94.7148 173.656 98.0898 173.656H104.203C107.578 173.656 110.316 176.402 110.316 179.785V182.852Z" fill="#A5C3DC"/>
<path d="M36.9688 120.027C35.7969 120.027 34.625 119.578 33.7266 118.684L18.4492 103.359C16.6562 101.566 16.6562 98.6523 18.4492 96.8594L33.7266 81.5352C35.5195 79.7422 38.4219 79.7422 40.2109 81.5352C42 83.332 42 86.2422 40.2109 88.0352L28.1719 100.109L40.2109 112.18C42 113.977 42 116.887 40.2109 118.684C39.3164 119.578 38.1445 120.027 36.9688 120.027Z" fill="#D7E6F0"/>
<path d="M79.7539 120.027C78.582 120.027 77.4062 119.578 76.5117 118.684C74.7227 116.887 74.7227 113.977 76.5117 112.18L88.5508 100.109L76.5117 88.0352C74.7227 86.2422 74.7227 83.332 76.5117 81.5352C78.3047 79.7422 81.207 79.7422 82.9961 81.5352L98.2773 96.8594C100.066 98.6523 100.066 101.566 98.2773 103.359L82.9961 118.684C82.1016 119.578 80.9258 120.027 79.7539 120.027Z" fill="#D7E6F0"/>
<path d="M52.25 120.031C51.6836 120.031 51.1055 119.922 50.5469 119.699C48.1953 118.758 47.0547 116.082 47.9922 113.723L60.2188 83.0781C61.1602 80.7227 63.8242 79.5742 66.1758 80.5195C68.5273 81.4609 69.6719 84.1367 68.7305 86.4922L56.5078 117.141C55.7891 118.937 54.0664 120.031 52.25 120.031Z" fill="#D7E6F0"/>
<path d="M107.258 136.883H168.379C175.133 136.883 180.605 131.395 180.605 124.625V75.5938C180.605 68.8242 175.133 63.3359 168.379 63.3359H107.258C100.508 63.3359 95.0352 68.8242 95.0352 75.5938V124.625C95.0352 131.395 100.508 136.883 107.258 136.883Z" fill="#289BC3"/>
<path d="M107.258 136.883H150.043C156.797 136.883 162.27 131.395 162.27 124.625V75.5938C162.27 68.8242 156.797 63.3359 150.043 63.3359H107.258C100.508 63.3359 95.0352 68.8242 95.0352 75.5938V124.625C95.0352 131.395 100.508 136.883 107.258 136.883Z" fill="#00D2D2"/>
<path d="M119.484 63.3359H107.258V36.1445C107.258 19.2734 120.695 5.27344 137.52 5.11329C154.508 4.94532 168.379 18.7578 168.379 35.7539C168.379 39.1406 165.645 41.8828 162.27 41.8828H161.961C158.754 41.8828 156.156 39.2774 156.156 36.0625C156.156 25.9961 148.211 17.5625 138.172 17.3711C127.902 17.1758 119.484 25.5 119.484 35.7539V63.3359Z" fill="#F25858"/>
<path d="M140.875 87.8516C140.875 80.793 134.926 75.1289 127.781 75.625C121.75 76.043 116.867 80.9453 116.457 86.9961C116.125 91.8867 118.66 96.2109 122.539 98.4649V118.496C122.539 121.879 125.277 124.625 128.652 124.625C132.027 124.625 134.762 121.879 134.762 118.496V98.4649C138.418 96.3438 140.875 92.3867 140.875 87.8516Z" fill="#174556"/>
<path d="M174.492 51.0781C173.711 51.0781 172.93 50.7773 172.332 50.1797C171.137 48.9844 171.137 47.043 172.332 45.8438L178.445 39.7188C179.637 38.5195 181.57 38.5195 182.766 39.7188C183.961 40.9141 183.961 42.8555 182.766 44.0508L176.652 50.1797C176.059 50.7773 175.273 51.0781 174.492 51.0781Z" fill="#F25858"/>
<path d="M150.043 51.0781C149.262 51.0781 148.48 50.7773 147.883 50.1797L141.77 44.0508C140.578 42.8555 140.578 40.9141 141.77 39.7148C142.965 38.5195 144.898 38.5195 146.094 39.7148L152.203 45.8438C153.398 47.043 153.398 48.9844 152.203 50.1797C151.609 50.7773 150.828 51.0781 150.043 51.0781Z" fill="#F25858"/>
<path d="M83 167.5H67.5V174H83V167.5Z" fill="#D7E6F0"/>
</svg>
