<svg width="150" height="188" viewBox="0 0 150 188" fill="none" xmlns="http://www.w3.org/2000/svg">
<path fill-rule="evenodd" clip-rule="evenodd" d="M52.3398 139.781L51.3867 140.316L52.2539 139.574L52.3398 139.781ZM51.9648 161.566L54.4453 160.152L54.7734 160.336L76.4922 147.742C76.5859 148.168 76.6758 148.602 76.7578 149.031L53.4531 162.43L52.875 163.41L51.9648 161.566ZM92.3047 142.82L95.793 140.805C95.5508 143.102 95.0469 145.316 94.2891 147.453C93.7227 148.922 93.5156 150.445 93.668 152.027C93.6406 151.809 93.6133 151.598 93.5859 151.391C92.9336 148.617 92.5078 145.758 92.3047 142.82ZM92.0586 138.715L95.9609 136.457C95.9766 136.973 95.9844 137.488 95.9805 137.996L92.1797 140.172C92.1836 140.133 92.1836 140.102 92.1797 140.066C92.1367 139.621 92.0937 139.172 92.0586 138.715ZM51.9648 175.555L52.875 174.816L52.918 175.023L51.9648 175.555ZM55.8906 177.812V163.781L77.2109 151.496C77.3437 152.223 77.4609 152.953 77.5625 153.691C77.9219 156.125 78.1562 158.461 78.2656 160.703C78.2656 161.332 78.4062 161.961 78.6797 162.594C78.8633 163.164 79.0391 163.742 79.1953 164.336L55.8906 177.812ZM112.871 144.848C113.164 142.465 113.398 140.066 113.566 137.648C113.719 135.242 113.84 132.824 113.941 130.387L120.055 126.855V140.684L112.871 144.848ZM116.832 125.996L114.043 127.598C114.047 127.324 114.055 127.051 114.066 126.777C114.074 126.508 114.078 126.234 114.086 125.957L116.234 124.727L116.832 125.996Z" fill="#40AF92"/>
<path fill-rule="evenodd" clip-rule="evenodd" d="M55.8906 163.781L53.4531 162.43L76.7578 149.031C76.9258 149.848 77.0742 150.668 77.2109 151.496L55.8906 163.781ZM92.3047 142.82C92.2422 141.945 92.2031 141.062 92.1797 140.172L95.9805 137.996C95.957 138.945 95.8984 139.883 95.793 140.805L92.3047 142.82ZM51.9648 161.566L10.8398 137.977L10.7188 137.895L13.2188 136.457L50.8086 158.117L50.8516 158.078L54.4453 160.152L51.9648 161.566ZM53.6602 172.641V173.953L10.8398 149.258L13.1133 147.945V149.258L53.6602 172.641ZM114.043 127.598L116.832 125.996L117.738 125.504L120.055 126.855L113.941 130.387C113.98 129.457 114.016 128.527 114.043 127.598Z" fill="#54C8AA"/>
<path fill-rule="evenodd" clip-rule="evenodd" d="M53.6602 172.641V165.219L13.1133 141.832L10.8398 140.52V137.977L51.9648 161.566L52.875 163.41L53.4531 162.43L55.8906 163.781V177.812L53.4531 176.414L52.918 175.023L52.875 174.816L51.9648 175.555V175.598L10.8398 151.965V149.258L53.6602 173.953V172.641Z" fill="#348671"/>
<path fill-rule="evenodd" clip-rule="evenodd" d="M54.7734 152.582L74.6133 140.848C74.7227 141.188 74.8242 141.531 74.9258 141.875C75.1914 142.652 75.4336 143.437 75.6445 144.23L54.7734 156.312V152.582ZM95.7109 132.602L91.7891 134.879C91.6992 134.34 91.5781 133.813 91.4375 133.301C91.293 132.574 91.1836 131.844 91.1094 131.105L95.7734 128.336C95.707 129.773 95.6875 131.195 95.7109 132.602ZM52.9961 134.613V137.484L14.1055 115.043V112.461C14.6289 112.812 15.207 113.184 15.8398 113.566C16.4023 113.91 17.375 114.48 18.7695 115.27C19.4453 115.648 20.2148 116.078 21.082 116.562C21.4102 116.742 21.7539 116.934 22.1133 117.137C22.2734 117.227 22.4297 117.316 22.5898 117.402C24.9453 118.73 26.7539 119.816 28.0195 120.664C31.4609 123.043 35.793 125.738 41.0273 128.746C45.5391 131.344 48.9922 133.109 51.3867 134.035C51.6914 134.176 51.9805 134.285 52.2539 134.367C52.4492 134.449 52.6289 134.516 52.793 134.57C52.875 134.57 52.9453 134.586 52.9961 134.613ZM53.6602 169.645V172.641L13.1133 149.258V146.551C13.6914 146.934 14.2969 147.316 14.9297 147.699C15.8945 148.301 18.0664 149.547 21.4531 151.434C24.1797 152.965 26.2422 154.195 27.6445 155.125C31.2266 157.613 35.7266 160.414 41.1484 163.535C45.8555 166.242 49.4609 168.09 51.9648 169.07C52.2695 169.184 52.5703 169.293 52.875 169.402C53.0664 169.453 53.2617 169.523 53.4531 169.605C53.5078 169.605 53.5781 169.621 53.6602 169.645ZM116.668 119.145V120.457L114.48 121.73C114.551 121.184 114.633 120.637 114.727 120.09C114.863 118.887 115.109 117.766 115.469 116.727C115.477 116.711 115.48 116.699 115.488 116.684L116.668 115.988V119.145Z" fill="#FFFCF2"/>
<path fill-rule="evenodd" clip-rule="evenodd" d="M12 124.355L54.7734 148.887V152.582L52.5039 152.172C52.4492 152.145 52.3789 152.117 52.2969 152.09C52.1289 152.035 51.9531 151.98 51.7617 151.922C51.457 151.816 51.1406 151.691 50.8086 151.555C48.332 150.598 44.7383 148.75 40.0312 146.02C34.6094 142.898 30.0977 140.109 26.4922 137.648C25.0859 136.719 23.0234 135.488 20.2969 133.957C19.8164 133.684 19.3516 133.422 18.9141 133.18C16.3398 131.723 14.6406 130.738 13.8164 130.223C13.1563 129.84 12.5508 129.457 12 129.074V124.355ZM14.1055 107.906L52.9961 130.348V134.613C52.9453 134.586 52.875 134.57 52.793 134.57C52.6289 134.516 52.4492 134.449 52.2539 134.367C51.9805 134.285 51.6914 134.176 51.3867 134.035C48.9922 133.109 45.5391 131.344 41.0273 128.746C35.793 125.738 31.4609 123.043 28.0195 120.664C26.7539 119.816 24.9453 118.73 22.5898 117.402C22.4297 117.316 22.2734 117.227 22.1133 117.137C21.7539 116.934 21.4102 116.742 21.082 116.562C20.2148 116.078 19.4453 115.648 18.7695 115.27C17.375 114.48 16.4023 113.91 15.8398 113.566C15.207 113.184 14.6289 112.812 14.1055 112.461V107.906ZM13.1133 141.832L53.6602 165.219V169.645C53.5781 169.621 53.5078 169.605 53.4531 169.605C53.2617 169.523 53.0664 169.453 52.875 169.402C52.5703 169.293 52.2695 169.184 51.9648 169.07C49.4609 168.09 45.8555 166.242 41.1484 163.535C35.7266 160.414 31.2266 157.613 27.6445 155.125C26.2422 154.195 24.1797 152.965 21.4531 151.434C18.0664 149.547 15.8945 148.301 14.9297 147.699C14.2969 147.316 13.6914 146.934 13.1133 146.551V141.832Z" fill="#E1D8B1"/>
<path fill-rule="evenodd" clip-rule="evenodd" d="M54.7734 156.312L75.6445 144.23C75.7422 144.578 75.8281 144.926 75.9141 145.281C75.918 145.309 75.9297 145.336 75.9375 145.359L54.7734 157.625L52.5039 156.312H54.7734ZM12 129.074V131.781L10.8398 132.438V123.699L12 124.355V129.074ZM54.7734 146.305L13.4844 122.633L17.0156 120.602L51.3867 140.316L52.3398 139.781L52.793 141.137L55.1445 142.488L73.375 131.926C73.3477 132.352 73.3281 132.801 73.3125 133.258C73.3125 134.02 73.3516 134.785 73.4375 135.555L54.7734 146.305ZM91.7891 134.879L95.7109 132.602C95.7266 133.027 95.7383 133.453 95.7539 133.875L91.9336 136.086C91.8984 135.68 91.8516 135.281 91.7891 134.879ZM96.2891 122.387L91.0469 125.402C91.0391 124.652 91.0039 123.891 90.9414 123.125C90.9141 122.684 90.8828 122.246 90.8438 121.812L96.9297 118.285C96.6758 119.652 96.4609 121.02 96.2891 122.387ZM12 121.812L9.72656 120.5L13.2773 118.449L15.5273 119.742L12 121.77V121.812ZM118.938 120.457L114.293 123.145C114.344 122.676 114.402 122.203 114.48 121.73L116.668 120.457V119.145L118.938 120.457ZM118.938 109.34L116.75 110.594C116.781 109.758 116.754 108.918 116.668 108.07V108.047L118.938 109.34Z" fill="#F9E207"/>
<path fill-rule="evenodd" clip-rule="evenodd" d="M54.7734 157.625L75.9375 145.359C76.1289 146.148 76.3164 146.941 76.4922 147.742L54.7734 160.336V157.625ZM54.7734 146.305L73.4375 135.555C73.5195 136.32 73.6406 137.098 73.8086 137.875L54.7734 148.887V146.305ZM54.7734 156.312H52.5039L50.8516 155.371H50.8086L10.8398 132.438L12 131.781L50.8086 154.059H50.8516L54.7734 156.312ZM17.0156 120.602L13.4844 122.633L12.9062 123.617L12 121.812V121.77L15.5273 119.742L17.0156 120.602ZM91.9336 136.086L95.7539 133.875C95.7578 134.082 95.7656 134.289 95.7734 134.488L95.9375 135.883C95.9492 136.074 95.9531 136.266 95.9609 136.457L92.0586 138.715C92.0195 138.062 91.9922 137.41 91.9766 136.746C91.9648 136.527 91.9531 136.309 91.9336 136.086ZM96 125.012L91.0039 127.906C91.0508 127.082 91.0625 126.242 91.0469 125.402L96.2891 122.387C96.2539 122.676 96.2188 122.961 96.1875 123.246C96.1211 123.836 96.0586 124.426 96 125.012ZM114.086 125.957C114.129 125.02 114.195 124.086 114.293 123.145L118.938 120.457V123.164L116.234 124.727L114.086 125.957ZM116.48 113.137C116.633 112.297 116.723 111.449 116.75 110.594L118.938 109.34V111.723L116.668 113.035L116.48 113.137Z" fill="#E6AD10"/>
<path fill-rule="evenodd" clip-rule="evenodd" d="M74.6133 140.848L54.7734 152.582V156.312L50.8516 154.059H50.8086L12 131.781V129.074C12.5508 129.457 13.1563 129.84 13.8164 130.223C14.6406 130.738 16.3398 131.723 18.9141 133.18C19.3516 133.422 19.8164 133.684 20.2969 133.957C23.0234 135.488 25.0859 136.719 26.4922 137.648C30.0977 140.109 34.6094 142.898 40.0312 146.02C44.7383 148.75 48.332 150.598 50.8086 151.555C51.1406 151.691 51.457 151.816 51.7617 151.922C51.9531 151.98 52.1289 152.035 52.2969 152.09C52.3789 152.117 52.4492 152.145 52.5039 152.172L54.7734 152.582V148.887L73.8086 137.875C73.9414 138.52 74.1094 139.168 74.3047 139.824C74.4141 140.164 74.5156 140.504 74.6133 140.848ZM91.0039 127.906L96 125.012C95.8984 126.129 95.8242 127.234 95.7734 128.336L91.1094 131.105C91.0117 130.164 90.9727 129.215 90.9844 128.254C90.9922 128.137 91 128.02 91.0039 127.906ZM116.668 115.988L115.488 116.684C115.938 115.516 116.27 114.332 116.48 113.137L116.668 113.035V115.988Z" fill="#F4EDD1"/>
<path fill-rule="evenodd" clip-rule="evenodd" d="M13.4844 122.633L54.7734 146.305V148.887L12 124.355L10.8398 123.699V132.438L50.8086 155.371H50.8516L52.5039 156.312L54.7734 157.625V160.336L54.4453 160.152L50.8516 158.078L50.8086 158.117L13.2188 136.457L9.72656 134.449V120.5L12 121.812L12.9063 123.617L13.4844 122.633Z" fill="#B58B1C"/>
<path fill-rule="evenodd" clip-rule="evenodd" d="M51.3867 126.855L62.2891 120.582C62.75 120.855 63.2188 121.129 63.6914 121.402L52.793 127.68L52.2539 128.625L51.3867 126.855ZM73.375 131.926L55.1445 142.488V128.992L70.5469 120.129C72.1289 120.984 73.8516 121.508 75.707 121.691C74.6055 124.668 73.8516 127.762 73.4375 130.961C73.4102 131.273 73.3906 131.594 73.375 131.926ZM98.3359 112.746C98.0312 113.293 97.8516 113.73 97.7969 114.059C97.4414 115.371 97.1641 116.711 96.9727 118.078C96.9609 118.148 96.9453 118.219 96.9297 118.285L90.8438 121.812C90.4492 118.258 89.3828 114.922 87.6406 111.801V111.723L87.5977 111.801L86.793 110.777L90.3242 108.746L91.9766 109.176H92.0156C93.5312 109.586 95.043 109.641 96.5586 109.34C98.0977 109.148 99.2695 109.355 100.066 109.957C100.066 110.313 99.9844 110.516 99.8203 110.574C99.7383 110.652 99.668 110.695 99.6133 110.695C99.2852 111.16 98.9805 111.625 98.7031 112.09C98.543 112.281 98.418 112.488 98.3359 112.703V112.746ZM112.91 98.4688C112.719 98.168 112.492 97.8789 112.246 97.6094L111.195 96.7461L111.875 96.3555L116.75 93.7734V106.797L116.543 106.922C116.086 103.801 114.875 100.984 112.91 98.4688Z" fill="#5058A9"/>
<path fill-rule="evenodd" clip-rule="evenodd" d="M55.1445 128.992L52.793 127.68L63.6914 121.402C64.1953 121.703 64.7031 122.004 65.2188 122.305L69.9297 119.762C70.1328 119.891 70.3398 120.012 70.5469 120.129L55.1445 128.992ZM90.3242 108.746L86.793 110.777L86.6914 110.652L90.2617 108.727L90.3242 108.746ZM111.875 96.3555L111.195 96.7461L111.176 96.7266L111.875 96.3555ZM51.3867 126.855L11.9141 104.211L11.793 104.133L37.2891 89.4648C37.3203 90.0898 37.375 90.7109 37.4531 91.332C34.7148 93.2461 33.3477 95.8164 33.3477 99.043C33.3477 102.094 42.9922 109.27 62.2891 120.582L51.3867 126.855ZM52.9961 137.484V138.754L11.9141 115.043L14.1055 113.773V115.043L52.9961 137.484ZM87.332 78.0586C84.2383 76.6641 82.0977 75.8867 80.9102 75.7422C79.4805 75.5508 78.6094 75.457 78.3086 75.457H78.2656C77.5547 73.9922 76.9297 72.3047 76.3906 70.3906L88.6133 77.3867L87.332 78.0586Z" fill="#7B81C9"/>
<path fill-rule="evenodd" clip-rule="evenodd" d="M51.3867 140.316L17.0156 120.602L15.5273 119.742L13.2773 118.449L11.9141 117.668V115.043L52.9961 138.754V130.348L14.1055 107.906L11.9141 106.672V104.211L51.3867 126.855L52.2539 128.625L52.793 127.68L55.1445 128.992V142.488L52.793 141.137L52.3398 139.781L52.2539 139.574L51.3867 140.316Z" fill="#3F49A6"/>
<path fill-rule="evenodd" clip-rule="evenodd" d="M62.2891 120.582C42.9922 109.27 33.3477 102.094 33.3477 99.043C33.3477 95.8164 34.7148 93.2461 37.4531 91.332C37.8047 93.9961 38.5273 96.5938 39.6211 99.125C40.3906 100.934 41.5469 102.422 43.0898 103.598C44.5469 104.746 46.0742 105.883 47.6719 107.004C50.8359 108.973 54.1016 110.723 57.457 112.254C59.3828 113.129 61.2969 114.031 63.1953 114.961C64.875 115.754 66.3906 116.793 67.7383 118.078C68.4336 118.719 69.1641 119.281 69.9297 119.762L65.2188 122.305C64.7031 122.004 64.1953 121.703 63.6914 121.402C63.2188 121.129 62.75 120.855 62.2891 120.582ZM86.1133 109.938L89.043 108.395L90.2617 108.727L86.6914 110.652L86.1133 109.938Z" fill="#3F49A6"/>
<path fill-rule="evenodd" clip-rule="evenodd" d="M57.6641 2.59375C61.2695 1.14453 64.8359 1.39062 68.3594 3.33594C71.8281 5.38672 74.3984 8.25781 76.0781 11.9492C76.1094 12.0039 76.1211 12.0469 76.1211 12.0703C76.3672 12.6211 76.5312 13.168 76.6172 13.7148C76.6719 13.957 76.6992 14.2305 76.6992 14.5312C75.7344 15.1094 74.4258 15.3945 72.7734 15.3945C68.3164 15.3945 64.4883 13.5352 61.2969 9.8164C58.875 7 57.6641 4.79687 57.6641 3.21094C57.6641 2.99219 57.6641 2.78906 57.6641 2.59375ZM58.2422 23.2305C56.8359 21.6992 55.7383 20.0312 54.9375 18.2266C54.0859 16.5312 53.4375 14.8086 52.9961 13.0586C52.418 11.332 52.0352 9.55859 51.8398 7.72265L55.5586 3.70312C55.0078 5.39844 55.0234 7.13672 55.6016 8.91406C56.1484 10.4727 56.9766 11.9766 58.0781 13.4258C59.2617 14.9883 60.5547 16.3672 61.9609 17.5703C62.4531 17.9531 62.9492 18.3086 63.4414 18.6367C64.0781 18.9922 64.6953 19.3867 65.3047 19.8242C65 19.9883 64.668 20.1523 64.3125 20.3164C62.6055 20.8633 60.9648 21.5078 59.3984 22.2461L58.2422 23.2305Z" fill="#76311C"/>
<path fill-rule="evenodd" clip-rule="evenodd" d="M52.793 21.9609L51.3867 19.457L50.8516 18.2266C50.1914 16.4766 50 14.7266 50.2734 12.9727C50.5781 11.0586 51.0976 9.30859 51.8398 7.72266C52.0351 9.55859 52.418 11.332 52.9961 13.0586C53.4375 14.8086 54.0859 16.5313 54.9375 18.2266C55.7383 20.0313 56.8359 21.6992 58.2422 23.2305L57.25 24.9961C55.9844 23.875 55.2695 22.4648 55.1055 20.7695C55.0234 19.8945 54.6758 19.1289 54.0703 18.4727C53.9336 18.3086 53.6445 18.2266 53.2031 18.2266C52.875 18.1992 52.6133 18.3477 52.418 18.6758C52.3086 18.9492 52.2305 19.3359 52.1719 19.8242C52.1719 20.2617 52.3789 20.9727 52.793 21.9609ZM55.5586 3.70312L55.6406 3.57812C55.918 3.41406 56.2187 3.26563 56.5469 3.12891C56.9062 2.9375 57.2773 2.76172 57.6641 2.59375C57.6641 2.78906 57.6641 2.99219 57.6641 3.21094C57.6641 4.79688 58.875 7 61.2969 9.81641C64.4883 13.5352 68.3164 15.3945 72.7734 15.3945C74.4258 15.3945 75.7344 15.1094 76.6992 14.5312C76.7266 16.2578 76.0078 17.8984 74.5508 19.457C71.8555 21.4531 68.9062 21.6602 65.7148 20.0742C65.5508 19.9883 65.4141 19.9102 65.3047 19.8242C64.6953 19.3867 64.0781 18.9922 63.4414 18.6367C62.9492 18.3086 62.4531 17.9531 61.9609 17.5703C60.5547 16.3672 59.2617 14.9883 58.0781 13.4258C56.9766 11.9766 56.1484 10.4727 55.6016 8.91406C55.0234 7.13672 55.0078 5.39844 55.5586 3.70312Z" fill="#3E1F17"/>
<path fill-rule="evenodd" clip-rule="evenodd" d="M62.2891 90.8789C62.3594 90.9688 62.4219 91.0703 62.4766 91.1875C62.4961 91.2461 62.5156 91.3047 62.5391 91.3711L62.4961 91.9883L62.4531 92.4805C62.0976 92.5625 61.7226 92.6992 61.3398 92.8906C60.3476 93.3828 59.6328 94.2578 59.1914 95.5156C58.4805 95.0117 57.7109 94.4648 56.8789 93.875C53.1641 91.2344 48.2383 87.7461 42.0976 83.4141C36.2031 79.4883 31.4141 76.543 27.7305 74.5742C27.7148 74.5664 27.7031 74.5586 27.6875 74.5547C26.9453 69.8477 26.9023 64.9531 27.5664 59.8672C28.4726 53.0547 29.6445 46.2891 31.0742 39.5586C31.0937 39.5586 31.1133 39.5586 31.1367 39.5586C31.9336 39.6133 32.7031 39.7109 33.4492 39.8477L39.4141 41.9375L41.2305 43.1875C41.5742 43.4688 41.9062 43.7617 42.2226 44.0703C42.3906 44.2539 42.5664 44.4375 42.7383 44.625C42.9453 44.8398 43.1445 45.0664 43.3359 45.3008C42.9609 44.875 42.582 44.4687 42.1992 44.0898L42.1797 44.0703C41.1055 46.0938 39.9375 50.5117 38.668 57.3203C37.2656 64.707 36.4297 68.7539 36.1523 69.4648C35.9687 69.9453 36.1133 70.5273 36.5859 71.2109C36.8164 71.5508 37.125 71.9102 37.5156 72.2969C38.1484 72.9258 38.8633 73.5937 39.6641 74.3047V74.3906L54.4219 85.4023L56.7578 87.1484C56.7773 87.1562 56.7969 87.1641 56.8164 87.168C57.2305 87.3672 57.6367 87.5703 58.0352 87.7852L58.2187 87.8867C59.6445 88.6758 60.9531 89.6328 62.1445 90.7578C62.1914 90.7969 62.2422 90.8398 62.2891 90.8789ZM94.7031 72.3359C92.3437 66.5898 88.9141 59.5625 84.418 51.25C81.5 45.6445 78.9141 40.9961 76.6562 37.3008C77.043 34.2383 77.5781 31.1914 78.2656 28.1562C78.7656 26.1289 78.6797 24.2305 78.0195 22.4492L77.5234 21.4648C80.9922 27.4023 84.0742 33.457 86.7734 39.6406C87.3789 40.9258 88.0117 42.1836 88.6719 43.4141C91.0117 47.8438 92.7891 52.6289 93.9961 57.7734C95.4844 63.875 97.9883 69.6563 101.512 75.1289L101.41 75.293C100.156 74.5742 99.0234 73.8633 98.0039 73.1562C96.8711 72.3906 95.8437 72.1055 94.9062 72.2969C94.8398 72.3086 94.7734 72.3242 94.7031 72.3359Z" fill="#F4F2FA"/>
<path fill-rule="evenodd" clip-rule="evenodd" d="M45.3203 48.3164C45.3281 48.4219 45.3711 48.5117 45.4453 48.5859V48.625L40.2812 72.7461C40.0742 73.2695 39.8672 73.7852 39.6641 74.3047C38.8633 73.5937 38.1484 72.9258 37.5156 72.2969C37.125 71.9102 36.8164 71.5508 36.5859 71.2109C36.1133 70.5273 35.9687 69.9453 36.1523 69.4648C36.4297 68.7539 37.2656 64.707 38.668 57.3203C39.9375 50.5117 41.1055 46.0938 42.1797 44.0703L42.1992 44.0898C42.582 44.4687 42.9609 44.875 43.3359 45.3008L45.1953 47.9297V48.0117C45.1953 48.0625 45.2227 48.1172 45.2773 48.1758L45.3203 48.2148V48.3164ZM57.9102 98.1211L57.7461 98.5938C55.2695 99.7422 52.8594 99.3594 50.5195 97.4414L50.1484 97.1797L37.2266 87.7031L37.1445 87.6406C34.8047 85.9453 32.6289 84.2891 30.6211 82.6758C29.793 81.8828 29.2305 80.9961 28.9297 80.0117C28.8984 79.9258 28.8867 79.8477 28.8867 79.7617C28.5273 78.5039 28.2109 77.2188 27.9336 75.9062C27.8555 75.4414 27.7734 74.9922 27.6875 74.5547C27.7031 74.5586 27.7148 74.5664 27.7305 74.5742C31.4141 76.543 36.2031 79.4883 42.0977 83.4141C48.2383 87.7461 53.1641 91.2344 56.8789 93.875C57.7109 94.4648 58.4805 95.0117 59.1914 95.5156C58.8867 96.2539 58.5195 96.9766 58.0781 97.6914L57.9102 98.1211ZM75.5 48.4609C75.582 47.6133 75.6523 46.7656 75.707 45.918C75.8711 43.0703 76.1875 40.1992 76.6562 37.3008C78.9141 40.9961 81.5 45.6445 84.418 51.25C88.9141 59.5625 92.3438 66.5898 94.7031 72.3359C93.8984 72.5312 93.2773 72.832 92.8438 73.2422C92.3203 73.6211 91.8672 74.4688 91.4805 75.7812C91.4687 75.8203 91.4531 75.8516 91.4375 75.8867L89.3711 76.9727C87.3203 71.8203 85.0313 66.832 82.5195 61.9961C80.6758 58.6094 78.9258 55.1758 77.2773 51.7031C76.8086 50.5508 76.2188 49.4727 75.5 48.4609Z" fill="#D0CDEB"/>
<path fill-rule="evenodd" clip-rule="evenodd" d="M78.3086 75.457C78.6094 75.457 79.4805 75.5508 80.9102 75.7422C82.0977 75.8867 84.2383 76.6641 87.332 78.0586L62.4961 91.168C62.4531 91.0703 62.3984 90.9883 62.3281 90.9219C62.3164 90.9062 62.3008 90.8945 62.2891 90.8789C62.2422 90.8398 62.1914 90.7969 62.1445 90.7578C60.9531 89.6328 59.6445 88.6758 58.2188 87.8867L58.0352 87.7852C57.6367 87.5703 57.2305 87.3672 56.8164 87.168L57.543 86.6562C58.0352 86.5469 58.5195 86.3945 58.9844 86.2031C60.7461 85.875 63.9102 86.2031 68.4805 87.1875C71.207 83.1133 73.3008 80.3359 74.7578 78.8594C76.2188 77.3555 77.4023 76.2188 78.3086 75.457ZM112.91 98.4688C111.977 98.9062 110.777 99.457 109.316 100.109C105.215 101.996 103.164 104.035 103.164 106.223C103.164 106.277 103.219 106.66 103.328 107.371C103.852 108.52 104.113 109.684 104.113 110.859C104.113 111.77 103.941 112.961 103.598 114.426C103.305 115.711 102.883 117.207 102.316 118.918C102.008 119.863 101.66 120.875 101.266 121.957C101.145 122.285 101.023 122.621 100.895 122.961C100.531 123.969 100.203 124.941 99.9023 125.895C99.3477 127.676 98.8984 129.367 98.5625 130.961C98.4531 131.453 98.3633 131.937 98.2734 132.418C98.0977 133.434 97.9766 134.402 97.8984 135.328C97.8516 135.883 97.8164 136.426 97.7969 136.953C97.7969 137.145 97.7969 137.332 97.7969 137.523C97.7969 137.937 97.8516 138.621 97.9648 139.574C98.0469 140.387 98.168 141.398 98.3359 142.613C98.3906 142.887 98.418 143.16 98.418 143.434C99.1445 146.414 99.9727 149.199 100.895 151.781C102.105 155.133 103.48 158.152 105.023 160.828C103.48 161.238 101.957 161.77 100.438 162.43C100.055 162.562 99.6797 162.715 99.3242 162.879L96.3555 162.098C96.3555 162.234 96.3672 162.359 96.3945 162.465L93.875 153.32C93.875 153.129 93.8359 152.965 93.75 152.828V152.582C93.7305 152.445 93.707 152.309 93.6875 152.172L93.668 152.027C93.5156 150.445 93.7227 148.922 94.2891 147.453C95.0469 145.316 95.5508 143.102 95.793 140.805C95.8984 139.883 95.957 138.945 95.9805 137.996C95.9844 137.488 95.9766 136.973 95.9609 136.457C95.9531 136.266 95.9492 136.074 95.9375 135.883L95.7734 134.488C95.7656 134.289 95.7578 134.082 95.7539 133.875C95.7383 133.453 95.7266 133.027 95.7109 132.602C95.6875 131.195 95.707 129.773 95.7734 128.336C95.8242 127.234 95.8984 126.129 96 125.012C96.0586 124.426 96.1211 123.836 96.1875 123.246C96.2188 122.961 96.2539 122.676 96.2891 122.387C96.4609 121.02 96.6758 119.652 96.9297 118.285C96.9453 118.219 96.9609 118.148 96.9727 118.078C97.5781 115.918 98.0312 114.141 98.3359 112.746V112.703C98.418 112.488 98.543 112.281 98.7031 112.09C98.9805 111.625 99.2852 111.16 99.6133 110.695C99.668 110.695 99.7383 110.652 99.8203 110.574C99.9844 110.516 100.066 110.313 100.066 109.957C99.2695 109.355 98.0977 109.148 96.5586 109.34C95.043 109.641 93.5312 109.586 92.0156 109.176H91.9766L90.3242 108.746L90.2617 108.727L89.043 108.395L111.176 96.7266L111.195 96.7461L112.246 97.6094C112.492 97.8789 112.719 98.168 112.91 98.4688ZM37.4531 91.332C37.375 90.7109 37.3203 90.0898 37.2891 89.4648C37.2461 88.8789 37.2266 88.2891 37.2266 87.7031L50.1484 97.1797L50.5625 97.4844C52.9023 99.3984 55.3242 99.7695 57.832 98.5938L57.9531 98.1406C58.9062 98.5703 59.7461 99.0195 60.4727 99.4961C60.5547 99.5508 60.6367 99.6055 60.7188 99.6602C60.8281 99.7422 60.9414 99.8242 61.0508 99.9062C61.0781 99.9336 61.1172 99.9727 61.1758 100.031C61.4219 100.219 61.6562 100.41 61.875 100.605C62.7578 101.449 63.9961 102.16 65.5938 102.734C65.6211 102.734 65.6602 102.75 65.7148 102.777C66.3477 102.996 67.0234 103.188 67.7383 103.352C67.9023 103.379 68.082 103.422 68.2773 103.473C68.7461 103.621 69.3828 103.969 70.1758 104.523C68.082 105.699 66.3203 107.074 64.8906 108.645C69.3672 111.086 72.9961 113.73 75.7695 116.582C75.8828 116.703 75.9922 116.816 76.0977 116.93C78.5547 119.551 80.3086 122.34 81.3633 125.301C81.5547 125.836 81.7305 126.402 81.8789 127.004C82.1563 128.016 82.3828 129.109 82.5625 130.285C82.6797 131.031 82.7734 131.812 82.8516 132.621C82.8828 132.926 82.9102 133.238 82.9336 133.547C82.9648 134.207 82.9961 134.98 83.0352 135.863C83.0938 137 83.1641 138.32 83.2422 139.824C83.2617 140.234 83.2812 140.66 83.3047 141.094C83.3164 141.348 83.332 141.609 83.3438 141.875C83.3984 142.441 83.4648 143.031 83.5508 143.637C83.6211 144.078 83.6992 144.531 83.7812 144.992C83.9297 145.766 84.1172 146.574 84.3359 147.41C85.1914 150.766 86.5547 154.629 88.4258 159.004C88.625 159.465 88.832 159.938 89.043 160.414C90.6953 164.164 91.9219 167.293 92.7188 169.812C91.9766 169.977 91.1914 170.125 90.3672 170.262C87.9453 170.48 85.5078 170.648 83.0547 170.754C82.9727 170.727 82.9023 170.715 82.8516 170.715L81.6523 170.262C81.3203 170.043 81.0625 169.797 80.8711 169.523C80.3984 168.785 80.0703 167.965 79.8789 167.062C79.6758 166.133 79.4531 165.227 79.1953 164.336C79.0391 163.742 78.8633 163.164 78.6797 162.594C78.4062 161.961 78.2656 161.332 78.2656 160.703C78.1562 158.461 77.9219 156.125 77.5625 153.691C77.4609 152.953 77.3437 152.223 77.2109 151.496C77.0742 150.668 76.9258 149.848 76.7578 149.031C76.6758 148.602 76.5859 148.168 76.4922 147.742C76.3164 146.941 76.1289 146.148 75.9375 145.359C75.9297 145.336 75.918 145.309 75.9141 145.281C75.8281 144.926 75.7422 144.578 75.6445 144.23C75.4336 143.437 75.1914 142.652 74.9258 141.875C74.8242 141.531 74.7227 141.188 74.6133 140.848C74.5156 140.504 74.4141 140.164 74.3047 139.824C74.1094 139.168 73.9414 138.52 73.8086 137.875C73.6406 137.098 73.5195 136.32 73.4375 135.555C73.3516 134.785 73.3125 134.02 73.3125 133.258C73.3281 132.801 73.3477 132.352 73.375 131.926C73.3906 131.594 73.4102 131.273 73.4375 130.961C73.8516 127.762 74.6055 124.668 75.707 121.691C73.8516 121.508 72.1289 120.984 70.5469 120.129C70.3398 120.012 70.1328 119.891 69.9297 119.762C69.1641 119.281 68.4336 118.719 67.7383 118.078C66.3906 116.793 64.875 115.754 63.1953 114.961C61.2969 114.031 59.3828 113.129 57.457 112.254C54.1016 110.723 50.8359 108.973 47.6719 107.004C46.0742 105.883 44.5469 104.746 43.0898 103.598C41.5469 102.422 40.3906 100.934 39.6211 99.125C38.5273 96.5938 37.8047 93.9961 37.4531 91.332Z" fill="#174556"/>
<path fill-rule="evenodd" clip-rule="evenodd" d="M86.6914 110.652L86.793 110.777L87.5977 111.801L87.6406 111.723V111.801C89.3828 114.922 90.4492 118.258 90.8438 121.812C90.8828 122.246 90.9141 122.684 90.9414 123.125C91.0039 123.891 91.0391 124.652 91.0469 125.402C91.0625 126.242 91.0508 127.082 91.0039 127.906C91 128.02 90.9922 128.137 90.9844 128.254C90.9727 129.215 91.0117 130.164 91.1094 131.105C91.1836 131.844 91.293 132.574 91.4375 133.301C91.5781 133.813 91.6992 134.34 91.7891 134.879C91.8516 135.281 91.8984 135.68 91.9336 136.086C91.9531 136.309 91.9648 136.527 91.9766 136.746C91.9922 137.41 92.0195 138.062 92.0586 138.715C92.0937 139.172 92.1367 139.621 92.1797 140.066C92.1836 140.102 92.1836 140.133 92.1797 140.172C92.2031 141.062 92.2422 141.945 92.3047 142.82C92.5078 145.758 92.9336 148.617 93.5859 151.391C93.6133 151.598 93.6406 151.809 93.668 152.027L93.6875 152.172C93.707 152.309 93.7305 152.445 93.75 152.582V152.828C93.8359 152.965 93.875 153.129 93.875 153.32L96.3945 162.465C96.4492 162.738 96.5039 163.016 96.5586 163.289C96.668 163.672 96.75 163.879 96.8047 163.906L97.3438 165.871V167.965C95.8828 168.703 94.3438 169.32 92.7188 169.812C91.9219 167.293 90.6953 164.164 89.043 160.414C88.832 159.938 88.625 159.465 88.4258 159.004C86.5547 154.629 85.1914 150.766 84.3359 147.41C84.1172 146.574 83.9297 145.766 83.7812 144.992C83.6992 144.531 83.6211 144.078 83.5508 143.637C83.4648 143.031 83.3984 142.441 83.3438 141.875C83.332 141.609 83.3164 141.348 83.3047 141.094C83.2812 140.66 83.2617 140.234 83.2422 139.824C83.1641 138.32 83.0938 137 83.0352 135.863C82.9961 134.98 82.9648 134.207 82.9336 133.547C82.9102 133.238 82.8828 132.926 82.8516 132.621C82.7734 131.812 82.6797 131.031 82.5625 130.285C82.3828 129.109 82.1563 128.016 81.8789 127.004C81.7305 126.402 81.5547 125.836 81.3633 125.301C80.3086 122.34 78.5547 119.551 76.0977 116.93C75.9922 116.816 75.8828 116.703 75.7695 116.582C72.9961 113.73 69.3672 111.086 64.8906 108.645C66.3203 107.074 68.082 105.699 70.1758 104.523C70.2539 104.582 70.3359 104.641 70.4219 104.707C71.25 105.336 71.7148 105.648 71.8281 105.648H71.8672C72.0977 105.562 72.2891 105.469 72.4453 105.359L82.9727 110.695C83.1953 110.809 83.418 110.867 83.6367 110.879C83.5117 111.188 83.6367 111.25 84.0078 111.066L86.1133 109.938L86.6914 110.652ZM112.91 98.4688C114.875 100.984 116.086 103.801 116.543 106.922C116.59 107.293 116.633 107.668 116.668 108.047V108.07C116.754 108.918 116.781 109.758 116.75 110.594C116.723 111.449 116.633 112.297 116.48 113.137C116.27 114.332 115.938 115.516 115.488 116.684C115.48 116.699 115.477 116.711 115.469 116.727C115.109 117.766 114.863 118.887 114.727 120.09C114.633 120.637 114.551 121.184 114.48 121.73C114.402 122.203 114.344 122.676 114.293 123.145C114.195 124.086 114.129 125.02 114.086 125.957C114.078 126.234 114.074 126.508 114.066 126.777C114.055 127.051 114.047 127.324 114.043 127.598C114.016 128.527 113.98 129.457 113.941 130.387C113.84 132.824 113.719 135.242 113.566 137.648C113.398 140.066 113.164 142.465 112.871 144.848C112.742 145.883 112.605 146.914 112.453 147.945C112.316 148.41 112.371 148.887 112.621 149.383C113.172 150.559 113.516 151.801 113.652 153.113C113.816 153.414 113.984 153.664 114.145 153.852C114.531 154.043 114.836 154.277 115.059 154.551C115.277 154.797 115.453 155.113 115.594 155.492C115.812 156.094 115.688 156.602 115.219 157.012C113.766 158.461 111.977 159.352 109.855 159.676C108.258 159.953 106.648 160.336 105.023 160.828C103.48 158.152 102.105 155.133 100.895 151.781C99.9727 149.199 99.1445 146.414 98.418 143.434C98.418 143.16 98.3906 142.887 98.3359 142.613C98.168 141.398 98.0469 140.387 97.9648 139.574C97.8516 138.621 97.7969 137.937 97.7969 137.523C97.7969 137.332 97.7969 137.145 97.7969 136.953C97.8164 136.426 97.8516 135.883 97.8984 135.328C97.9766 134.402 98.0977 133.434 98.2734 132.418C98.3633 131.937 98.4531 131.453 98.5625 130.961C98.8984 129.367 99.3477 127.676 99.9023 125.895C100.203 124.941 100.531 123.969 100.895 122.961C101.023 122.621 101.145 122.285 101.266 121.957C101.66 120.875 102.008 119.863 102.316 118.918C102.883 117.207 103.305 115.711 103.598 114.426C103.941 112.961 104.113 111.77 104.113 110.859C104.113 109.684 103.852 108.52 103.328 107.371C103.219 106.66 103.164 106.277 103.164 106.223C103.164 104.035 105.215 101.996 109.316 100.109C110.777 99.457 111.977 98.9062 112.91 98.4688ZM98.3359 112.746C98.0312 114.141 97.5781 115.918 96.9727 118.078C97.1641 116.711 97.4414 115.371 97.7969 114.059C97.8516 113.73 98.0312 113.293 98.3359 112.746Z" fill="#025D7F"/>
<path fill-rule="evenodd" clip-rule="evenodd" d="M32.8906 35.8672C33.7734 35.9492 34.6953 36.0977 35.6562 36.3203C40.0625 37.3008 43.5547 39.5742 46.1445 43.1289C49.1992 47.3398 50.4375 52.6992 49.8633 59.207C49.668 61.9961 50.7422 68.6172 53.082 79.0664C53.1602 79.4688 53.2344 79.8672 53.3086 80.2539C53.6953 82.1406 54.0664 83.8555 54.4219 85.4023L39.6641 74.3906C39.875 73.8438 40.082 73.3008 40.2812 72.7461L45.4453 48.625V48.5C45.3672 48.4297 45.3242 48.3672 45.3203 48.3164V48.2148L45.2773 48.1758C45.2227 48.1172 45.1953 48.0625 45.1953 48.0117V47.9297L43.418 45.3008C42.7578 44.5117 42.0273 43.8086 41.2305 43.1875L39.4141 41.9375L33.4492 39.8477C32.7031 39.7109 31.9336 39.6133 31.1367 39.5586C31.625 38.3164 32.2109 37.0859 32.8906 35.8672ZM107.211 182.57C106.027 183.254 104.734 183.73 103.328 184.004C103.109 184.031 102.848 184.059 102.547 184.09L100.277 184.168C99.75 184.117 99.2695 184.074 98.832 184.047L98.293 184.004C96.5586 183.816 94.9062 183.242 93.3398 182.281C92.2656 181.598 91.2852 180.777 90.4062 179.82C89.0586 178.262 87.7773 176.582 86.5664 174.773C86.2891 174.391 85.9766 173.996 85.6172 173.586C84.7891 172.602 83.8672 171.645 82.8516 170.715C82.9023 170.715 82.9727 170.727 83.0547 170.754C85.5078 170.648 87.9453 170.48 90.3672 170.262C91.1914 170.125 91.9766 169.977 92.7188 169.812C94.3438 169.32 95.8828 168.703 97.3438 167.965L98.9531 169.812H98.9141L98.9922 169.895C98.0586 170.551 96.6836 171.016 94.8633 171.289C93.9297 171.426 92.6523 171.629 91.0273 171.902C89.8398 172.176 89.25 172.629 89.25 173.258C89.25 174.68 90.1992 176.277 92.0977 178.059C94.6602 180.437 97.9883 181.629 102.094 181.629C104.293 181.215 105.957 180.957 107.09 180.848C107.113 180.957 107.129 181.078 107.129 181.215C107.184 181.57 107.211 181.941 107.211 182.324C107.211 182.406 107.211 182.488 107.211 182.57ZM128.434 168.949C127.195 170.016 125.695 170.332 123.934 169.895C123.355 169.781 122.777 169.676 122.199 169.566C119.609 169.156 117.191 168.324 114.934 167.062C113.668 166.406 112.387 165.859 111.09 165.422L99.3242 162.879C99.6797 162.715 100.055 162.562 100.438 162.43C101.957 161.77 103.48 161.238 105.023 160.828C106.648 160.336 108.258 159.953 109.855 159.676C111.977 159.352 113.766 158.461 115.219 157.012L116.914 158.242C116.613 158.488 116.281 158.734 115.926 158.98C112.621 161.059 110.789 162.25 110.43 162.551C113.102 165.23 118.125 166.883 125.504 167.516C126.797 167.594 127.914 167.707 128.848 167.844C128.789 168.227 128.652 168.594 128.434 168.949Z" fill="#E3A42D"/>
<path fill-rule="evenodd" clip-rule="evenodd" d="M101.598 175.348C101.598 174.09 100.742 173.668 99.0352 174.078C97.3555 174.488 96.5156 175.102 96.5156 175.926C96.5156 177.047 96.9453 177.605 97.7969 177.605C98.5938 177.605 99.4375 177.32 100.316 176.746C101.172 176.172 101.598 175.707 101.598 175.348ZM98.832 171.984L98.6641 171.531C97.9492 171.289 97.043 171.355 95.9375 171.738C94.6758 172.125 94.0391 172.641 94.0391 173.297C94.0391 174.012 94.1367 174.215 94.3281 173.914L94.2891 174.035C94.3438 174.121 94.5938 174.16 95.0312 174.16C95.2227 174.16 95.7617 173.941 96.6406 173.504C97.6602 172.984 98.3906 172.477 98.832 171.984ZM107.09 180.848C105.957 180.957 104.293 181.215 102.094 181.629C97.9883 181.629 94.6602 180.437 92.0977 178.059C90.1992 176.277 89.25 174.68 89.25 173.258C89.25 172.629 89.8398 172.176 91.0273 171.902C92.6523 171.629 93.9297 171.426 94.8633 171.289C96.6836 171.016 98.0586 170.551 98.9922 169.895L100.645 171.738C102.215 173.379 103.719 175.074 105.148 176.824C106.223 178.031 106.867 179.371 107.09 180.848ZM123.066 161.441C124.91 162.453 126.563 163.711 128.02 165.219C128.516 165.871 128.805 166.504 128.887 167.105C128.914 167.352 128.902 167.594 128.848 167.844C127.914 167.707 126.797 167.594 125.504 167.516C118.125 166.883 113.102 165.23 110.43 162.551C110.789 162.25 112.621 161.059 115.926 158.98C116.281 158.734 116.613 158.488 116.914 158.242L117.078 158.324C116.914 158.379 116.762 158.461 116.621 158.57C115.469 159.391 114.891 160.102 114.891 160.703C114.891 160.785 114.891 160.867 114.891 160.949C114.891 161.25 114.918 161.418 114.973 161.441L115.18 161.523L116.254 161.812C117.078 161.621 117.875 161.141 118.648 160.375C118.895 160.129 119.117 159.898 119.309 159.676C119.582 159.844 119.832 159.977 120.055 160.086C119.75 160.578 119.598 161.152 119.598 161.812C119.598 162.332 119.637 162.645 119.723 162.754C119.832 163.109 120.215 163.398 120.879 163.617C121.102 163.207 121.773 162.508 122.902 161.523C122.93 161.496 122.984 161.469 123.066 161.441ZM76.3906 70.3906C76.9297 72.3047 77.5547 73.9922 78.2656 75.457H78.3086C77.4023 76.2188 76.2188 77.3555 74.7578 78.8594C73.3008 80.3359 71.207 83.1133 68.4805 87.1875C63.9102 86.2031 60.7461 85.875 58.9844 86.2031C58.5195 86.3945 58.0352 86.5469 57.543 86.6562L56.8164 87.168C56.7969 87.1641 56.7773 87.1562 56.7578 87.1484L54.4219 85.4023C54.0664 83.8555 53.6953 82.1406 53.3086 80.2539C53.2344 79.8672 53.1602 79.4688 53.082 79.0664C50.7422 68.6172 49.668 61.9961 49.8633 59.207C50.4375 52.6992 49.1992 47.3398 46.1445 43.1289C43.5547 39.5742 40.0625 37.3008 35.6562 36.3203C34.6953 36.0977 33.7734 35.9492 32.8906 35.8672C33.3594 34.9922 33.8516 34.1719 34.3789 33.4062C36.4961 30.3672 38.9062 27.7188 41.6055 25.4453C43.0078 24.2148 44.4492 23.0117 45.9375 21.8359C46.4922 21.4062 47.0625 20.9883 47.6523 20.5859L47.6328 20.6055L47.5898 20.7695C47.5898 20.7969 47.5625 20.8516 47.5078 20.9336C47.2305 22.082 47.0391 23.4219 46.9258 24.9531C46.9258 25.3906 46.9258 25.8828 46.9258 26.4297C46.9258 28.0703 47.6602 29.8789 49.1172 31.8438C49.9141 32.9414 50.8359 33.8281 51.8828 34.5117C54.0313 35.9883 56.7695 36.7266 60.1016 36.7266C62.4961 36.7266 64.3672 35.9102 65.7148 34.2656C66.4023 34.2656 67.1328 34.0625 67.9023 33.6523C69.1133 32.9648 69.7227 31.875 69.7227 30.3672L71.6211 30.6172L71.5391 26.4727L74.0156 21.9609C74.4258 21.0586 74.6055 20.2227 74.5508 19.457L77.5234 21.4648L78.0195 22.4492C78.6797 24.2305 78.7656 26.1289 78.2656 28.1562C77.5781 31.1914 77.043 34.2383 76.6562 37.3008C76.1875 40.1992 75.8711 43.0703 75.707 45.918C75.6523 46.7656 75.582 47.6133 75.5 48.4609C74.7031 52.3711 74.1094 56.3516 73.7266 60.3984C73.6406 60.7539 73.9063 61.8242 74.5078 63.6016C75.0898 65.4023 75.6523 67.4258 76.2031 69.6719C76.2656 69.9102 76.3281 70.1484 76.3906 70.3906Z" fill="#FBC049"/>
<path fill-rule="evenodd" clip-rule="evenodd" d="M101.598 175.348C101.598 175.707 101.172 176.172 100.316 176.746C99.4375 177.32 98.5938 177.605 97.7969 177.605C96.9453 177.605 96.5156 177.047 96.5156 175.926C96.5156 175.102 97.3555 174.488 99.0352 174.078C100.742 173.668 101.598 174.09 101.598 175.348ZM98.832 171.984C98.3906 172.477 97.6602 172.984 96.6406 173.504C95.7617 173.941 95.2227 174.16 95.0312 174.16C94.5938 174.16 94.3438 174.121 94.2891 174.035L94.3281 173.914C94.1367 174.215 94.0391 174.012 94.0391 173.297C94.0391 172.641 94.6758 172.125 95.9375 171.738C97.043 171.355 97.9492 171.289 98.6641 171.531L98.832 171.984ZM50.8516 18.2266L51.3867 19.457C51.2227 19.5664 51.0312 19.6875 50.8086 19.8242C49.2148 20.9492 49.0352 23.2148 50.2734 26.6367C51.4297 29.4531 53.3281 31.5703 55.9727 32.9922C56.8242 33.3789 57.6523 33.7227 58.4492 34.0195C60.2656 34.5664 61.918 34.3086 63.4023 33.2422C64.1484 33.8437 64.9141 34.1836 65.7148 34.2656C64.3672 35.9102 62.4961 36.7266 60.1016 36.7266C56.7695 36.7266 54.0313 35.9883 51.8828 34.5117C50.8359 33.8281 49.9141 32.9414 49.1172 31.8438C47.6602 29.8789 46.9258 28.0703 46.9258 26.4297C46.9258 25.8828 46.9258 25.3906 46.9258 24.9531C47.0391 23.4219 47.2305 22.082 47.5078 20.9336C47.5625 20.8516 47.5898 20.7969 47.5898 20.7695L47.6328 20.6055L47.6523 20.5859C47.7422 20.5234 47.832 20.4609 47.9219 20.3984C48 20.3164 48.1016 20.25 48.2109 20.1953L50.3984 18.5977C50.5898 18.5117 50.7422 18.3906 50.8516 18.2266ZM82.8516 170.715C83.8672 171.645 84.7891 172.602 85.6172 173.586C85.9766 173.996 86.2891 174.391 86.5664 174.773C87.7773 176.582 89.0586 178.262 90.4062 179.82C91.2852 180.777 92.2656 181.598 93.3398 182.281C94.9062 183.242 96.5586 183.816 98.293 184.004L98.832 184.047C99.2695 184.074 99.75 184.117 100.277 184.168L102.547 184.09C102.848 184.059 103.109 184.031 103.328 184.004C104.734 183.73 106.027 183.254 107.211 182.57L106.883 184.457C106.801 184.484 106.703 184.527 106.594 184.582C102.961 185.863 99.2578 185.977 95.4844 184.906C94.6836 184.719 93.9297 184.43 93.2148 184.047C90.9297 182.488 89.0156 180.422 87.4727 177.852C87.0898 177.742 86.7031 177.594 86.3164 177.398C83.457 175.898 81.9023 173.516 81.6523 170.262L82.8516 170.715ZM99.3242 162.879L111.09 165.422C112.387 165.859 113.668 166.406 114.934 167.062C117.191 168.324 119.609 169.156 122.199 169.566C122.777 169.676 123.355 169.781 123.934 169.895C125.695 170.332 127.195 170.016 128.434 168.949C128.734 169.824 128.516 170.52 127.773 171.043C125.434 171.973 122.281 171.617 118.32 169.977C114.383 168.332 110.883 167.078 107.828 166.203C107.5 166.473 107.184 166.762 106.883 167.062C106.328 167.445 105.738 167.652 105.105 167.68C102.465 167.57 99.875 166.969 97.3438 165.871L96.8047 163.906C96.75 163.879 96.668 163.672 96.5586 163.289C96.5039 163.016 96.4492 162.738 96.3945 162.465C96.3672 162.359 96.3555 162.234 96.3555 162.098L99.3242 162.879ZM123.066 161.441C122.984 161.469 122.93 161.496 122.902 161.523C121.773 162.508 121.102 163.207 120.879 163.617C120.215 163.398 119.832 163.109 119.723 162.754C119.637 162.645 119.598 162.332 119.598 161.812C119.598 161.152 119.75 160.578 120.055 160.086C120.52 160.277 120.988 160.473 121.457 160.664C121.484 160.664 121.523 160.664 121.578 160.664C121.605 160.688 121.637 160.703 121.664 160.703C122.129 160.922 122.598 161.168 123.066 161.441ZM117.078 158.324L117.535 158.652C117.727 158.789 117.961 158.938 118.234 159.102C118.539 159.297 118.895 159.488 119.309 159.676C119.117 159.898 118.895 160.129 118.648 160.375C117.875 161.141 117.078 161.621 116.254 161.812L115.18 161.523L114.973 161.441C114.918 161.418 114.891 161.25 114.891 160.949C114.891 160.867 114.891 160.785 114.891 160.703C114.891 160.102 115.469 159.391 116.621 158.57C116.762 158.461 116.914 158.379 117.078 158.324Z" fill="#535353"/>
<path fill-rule="evenodd" clip-rule="evenodd" d="M79.3008 99.207C79.1328 98.9336 78.9258 98.6758 78.6797 98.4297C77.9922 97.7734 77.125 97.2656 76.0781 96.9102C75.3945 96.6836 74.7734 96.582 74.2227 96.6055C73.9727 96.6133 73.7422 96.6445 73.5195 96.707C72.875 96.8398 72.4883 97.1328 72.3633 97.5898C72.3359 97.6953 72.3203 97.8125 72.3203 97.9375C72.3203 98.0156 72.4336 98.168 72.6523 98.3867C72.625 98.4414 72.5977 98.4961 72.5703 98.5508C74.6641 99.7852 75.8359 100.668 76.0781 101.195C76.1094 101.266 76.1211 101.324 76.1211 101.383C76.1211 101.684 75.9844 101.996 75.707 102.324C75.1563 101.945 74.6055 101.586 74.0586 101.258C71.6328 99.7813 70.4219 99.5508 70.4219 100.562C70.4219 100.535 70.7383 100.781 71.3711 101.301C71.125 101.164 70.9062 101.055 70.7109 100.973V101.422C71.1797 102.082 71.7578 102.82 72.4453 103.637C72.832 104.105 73.0234 104.406 73.0234 104.543C73.0234 104.68 72.9844 104.801 72.8984 104.914C72.1289 104.199 70.7656 103.516 68.8125 102.859C67.9883 102.613 67.2305 102.422 66.5391 102.285C66.4297 102.203 66.3477 102.133 66.293 102.082C64.0117 99.918 62.8672 97.7422 62.8672 95.5547C62.8672 94.9023 63.0039 94.0781 63.2812 93.0938C63.3906 92.7656 63.4727 92.4922 63.5273 92.2773C63.832 92.168 64.4375 91.9766 65.3438 91.7031C66.8555 91.2891 68.1523 91.0859 69.2227 91.0859C71.2891 91.0859 74.2891 91.5781 78.2266 92.5625C79.1016 92.7891 79.8906 93.0078 80.5781 93.2188C83.25 94.0586 84.5859 94.8242 84.5859 95.5156C83.0234 95.4688 81.1016 95.0195 78.8242 94.1641C78.457 94.0195 78.0781 93.8711 77.6914 93.7109C76.5078 93.2187 75.7187 92.9453 75.3359 92.8906C74.7031 92.7812 74.2891 92.957 74.0977 93.4258C74.7148 93.6875 75.7773 94.207 77.2773 94.9805C77.6523 95.1719 78.0508 95.375 78.4727 95.5977C78.8594 96.3906 79.2031 97.0898 79.5039 97.6914C79.5898 97.9102 79.6289 98.0859 79.6289 98.2227C79.6289 98.25 79.5195 98.582 79.3008 99.207ZM65.7148 34.2656C64.9141 34.1836 64.1484 33.8437 63.4023 33.2422L59.1094 30.6172C58.7227 30.3164 58.3516 30.0156 57.9961 29.7148C57.2773 28.9453 56.7148 28.1133 56.3008 27.2109C56.1367 26.9102 56.0273 26.6602 55.9727 26.4727L55.9297 26.2656C55.875 26.2109 55.8477 26.1719 55.8477 26.1445C55.7383 25.8711 55.668 25.6367 55.6406 25.4453L54.3594 23.5586C53.7812 23.6406 53.2617 23.1094 52.793 21.9609C52.3789 20.9727 52.1719 20.2617 52.1719 19.8242C52.2305 19.3359 52.3086 18.9492 52.418 18.6758C52.6133 18.3477 52.875 18.1992 53.2031 18.2266C53.6445 18.2266 53.9336 18.3086 54.0703 18.4727C54.6758 19.1289 55.0234 19.8945 55.1055 20.7695C55.2695 22.4648 55.9844 23.875 57.25 24.9961L58.2422 23.2305L59.3984 22.2461C59.4258 22.2734 59.4414 22.3281 59.4414 22.4102C59.6602 22.6562 60.168 22.8867 60.9648 23.1094C65.1523 24.1758 69.2383 23.9414 73.2305 22.4102C73.4531 22.3008 73.7109 22.1484 74.0156 21.9609L71.5391 26.4727L71.6211 30.6172L69.7227 30.3672C69.7227 31.875 69.1133 32.9648 67.9023 33.6523C67.1328 34.0625 66.4023 34.2656 65.7148 34.2656ZM105.703 78.3281L102.586 79.9688C102.023 79.1406 101.738 79.2969 101.719 80.4414L99.8203 81.4453C99.7188 81.4961 99.6211 81.5586 99.5312 81.6289C99.4375 81.4805 99.3398 81.3359 99.2422 81.1992C98.582 80.1875 98.25 79.9844 98.25 80.582C98.25 80.6641 98.3047 80.8711 98.418 81.1992L98.543 81.7344C98.5547 81.8125 98.6289 82.0625 98.7656 82.4922L97.9648 84.0273L97.4453 84.2969C97.2383 83.8242 97.0508 83.4492 96.8906 83.168C96.2812 81.5273 95.6211 80.2148 94.9062 79.2305C94.0273 77.9414 93.5859 78.1641 93.5859 79.8867C93.5859 79.9687 93.668 80.3906 93.8359 81.1602C94.1914 81.6211 94.5234 82.1406 94.8242 82.7148C95.043 83.2344 95.1562 83.5625 95.1562 83.6992C95.1562 83.7266 95.1016 84 94.9883 84.5234C94.9063 84.7109 94.8125 84.875 94.7031 85.0117C94.3945 84.7109 94.0273 84.3164 93.5859 83.8242C92.375 82.5937 91.5352 81.7344 91.0664 81.2383C90.793 80.9961 90.5469 80.6094 90.3242 80.0898C90.2148 79.8164 90.1172 79.5703 90.0352 79.3516C90.1445 78.9414 90.3242 78.4219 90.5742 77.793C90.6836 77.5195 90.7773 77.2734 90.8594 77.0547C91.0664 76.7734 91.2617 76.3828 91.4375 75.8867C91.4531 75.8516 91.4687 75.8203 91.4805 75.7812C91.8672 74.4688 92.3203 73.6211 92.8438 73.2422C93.2773 72.832 93.8984 72.5312 94.7031 72.3359C94.7734 72.3242 94.8398 72.3086 94.9062 72.2969C95.8438 72.1055 96.8711 72.3906 98.0039 73.1562C99.0234 73.8633 100.156 74.5742 101.41 75.293C101.512 75.3437 101.617 75.3984 101.719 75.457C103.516 76.5039 104.844 77.4609 105.703 78.3281Z" fill="#F89A75"/>
<path fill-rule="evenodd" clip-rule="evenodd" d="M75.707 102.324C75.6797 102.355 75.6406 102.383 75.582 102.406C75.2539 102.762 74.9375 102.941 74.6367 102.941C74.3047 102.941 73.8789 102.777 73.3516 102.449C72.5859 101.984 71.9219 101.602 71.3711 101.301C70.7383 100.781 70.4219 100.535 70.4219 100.562C70.4219 99.5508 71.6328 99.7813 74.0586 101.258C74.6055 101.586 75.1563 101.945 75.707 102.324ZM79.3008 99.207C79.2734 99.2891 79.2305 99.3867 79.1758 99.4961C79.0625 99.7969 78.9023 99.9883 78.6797 100.07C78.5156 100.152 78.2383 100.191 77.8555 100.191C77.8281 100.191 77.6367 99.9609 77.2773 99.4961C76.8906 98.9492 76.6172 98.6055 76.4492 98.4688C76.1758 98.1406 75.9297 97.9102 75.707 97.7734C75.3516 97.5547 74.7578 97.4414 73.9297 97.4414C73.6836 97.4414 73.4922 97.5 73.3516 97.6094C73.1641 97.7188 72.9258 97.9766 72.6523 98.3867C72.4336 98.168 72.3203 98.0156 72.3203 97.9375C72.3203 97.8125 72.3359 97.6953 72.3633 97.5898C72.4883 97.1328 72.875 96.8398 73.5195 96.707C73.7422 96.6445 73.9727 96.6133 74.2227 96.6055C74.7734 96.582 75.3945 96.6836 76.0781 96.9102C77.125 97.2656 77.9922 97.7734 78.6797 98.4297C78.9258 98.6758 79.1328 98.9336 79.3008 99.207ZM78.4727 95.5977C78.0508 95.375 77.6523 95.1719 77.2773 94.9805C75.7773 94.207 74.7148 93.6875 74.0977 93.4258C74.2891 92.957 74.7031 92.7812 75.3359 92.8906C75.7187 92.9453 76.5078 93.2187 77.6914 93.7109C78.0781 93.8711 78.457 94.0195 78.8242 94.1641C81.1016 95.0195 83.0234 95.4688 84.5859 95.5156C84.5859 95.9258 84.418 96.2266 84.0898 96.418C83.8398 96.6094 83.5391 96.707 83.1797 96.707C82.7148 96.707 82.1758 96.5664 81.5703 96.293C80.8008 95.9648 79.7539 95.6914 78.4336 95.4766C78.4609 95.5039 78.4727 95.543 78.4727 95.5977ZM57.9531 98.1406L57.9102 98.1211L58.0781 97.6914C58.5195 96.9766 58.8867 96.2539 59.1914 95.5156C59.6328 94.2578 60.3477 93.3828 61.3398 92.8906C61.7227 92.6992 62.0977 92.5625 62.4531 92.4805L62.4961 91.9883C62.9375 92.207 63.2148 92.3164 63.3203 92.3164L63.5273 92.2773C63.4727 92.4922 63.3906 92.7656 63.2812 93.0938C63.0039 94.0781 62.8672 94.9023 62.8672 95.5547C62.8672 97.7422 64.0117 99.918 66.293 102.082C66.3477 102.133 66.4297 102.203 66.5391 102.285C67.2305 102.422 67.9883 102.613 68.8125 102.859C70.7656 103.516 72.1289 104.199 72.8984 104.914C72.8047 105.078 72.6563 105.23 72.4453 105.359C72.2891 105.469 72.0977 105.562 71.8672 105.648H71.8281C71.7148 105.648 71.25 105.336 70.4219 104.707C70.3359 104.641 70.2539 104.582 70.1758 104.523C69.3828 103.969 68.7461 103.621 68.2773 103.473C68.082 103.422 67.9023 103.379 67.7383 103.352C67.0234 103.188 66.3477 102.996 65.7148 102.777C65.6602 102.75 65.6211 102.734 65.5938 102.734C63.9961 102.16 62.7578 101.449 61.875 100.605C61.6562 100.41 61.4219 100.219 61.1758 100.031C61.1172 99.9727 61.0781 99.9336 61.0508 99.9062C60.9414 99.8242 60.8281 99.7422 60.7188 99.6602C60.6367 99.6055 60.5547 99.5508 60.4727 99.4961C59.7461 99.0195 58.9062 98.5703 57.9531 98.1406ZM99.5312 81.6289C99.2891 81.793 99.082 82.0039 98.9141 82.2656L98.582 81.4883C98.5547 81.4023 98.5234 81.3242 98.5 81.2383C98.4453 81.2109 98.418 81.1875 98.418 81.1602V81.1992C98.3047 80.8711 98.25 80.6641 98.25 80.582C98.25 79.9844 98.582 80.1875 99.2422 81.1992C99.3398 81.3359 99.4375 81.4805 99.5312 81.6289ZM96.6211 84.7266C95.7695 82.6328 95.1992 81.3047 94.9062 80.75L93.8359 81.1602C93.668 80.3906 93.5859 79.9687 93.5859 79.8867C93.5859 78.1641 94.0273 77.9414 94.9062 79.2305C95.6211 80.2148 96.2812 81.5273 96.8906 83.168C97.0508 83.4492 97.2383 83.8242 97.4453 84.2969L96.6211 84.7266ZM94.7031 85.0117C94.4805 85.2344 94.1914 85.3438 93.8359 85.3438C93.4219 85.3438 92.6523 84.6328 91.5195 83.2109C90.3945 81.7617 89.8281 80.707 89.8281 80.0508C89.8281 79.9414 89.8984 79.7109 90.0352 79.3516C90.1172 79.5703 90.2148 79.8164 90.3242 80.0898C90.5469 80.6094 90.793 80.9961 91.0664 81.2383C91.5352 81.7344 92.375 82.5937 93.5859 83.8242C94.0273 84.3164 94.3945 84.7109 94.7031 85.0117ZM101.719 80.4414C101.738 79.2969 102.023 79.1406 102.586 79.9688L101.719 80.4414ZM59.3984 22.2461C60.9648 21.5078 62.6055 20.8633 64.3125 20.3164C64.668 20.1523 65 19.9883 65.3047 19.8242C65.4141 19.9102 65.5508 19.9883 65.7148 20.0742C68.9062 21.6602 71.8555 21.4531 74.5508 19.457C74.6055 20.2227 74.4258 21.0586 74.0156 21.9609C73.7109 22.1484 73.4531 22.3008 73.2305 22.4102C69.2383 23.9414 65.1523 24.1758 60.9648 23.1094C60.168 22.8867 59.6602 22.6563 59.4414 22.4102C59.4414 22.3281 59.4258 22.2734 59.3984 22.2461Z" fill="#EE8960"/>
<path fill-rule="evenodd" clip-rule="evenodd" d="M51.3867 19.457L52.793 21.9609C53.2617 23.1094 53.7813 23.6406 54.3594 23.5586L55.6406 25.4453C55.668 25.6367 55.7383 25.8711 55.8477 26.1445C55.8477 26.1719 55.875 26.2109 55.9297 26.2656L55.9727 26.4727C56.0274 26.6602 56.1367 26.9102 56.3008 27.2109C56.7149 28.1133 57.2774 28.9453 57.9961 29.7148C58.3516 30.0156 58.7227 30.3164 59.1094 30.6172L63.4024 33.2422C61.918 34.3086 60.2656 34.5664 58.4492 34.0195C57.6524 33.7227 56.8242 33.3789 55.9727 32.9922C53.3281 31.5703 51.4297 29.4531 50.2734 26.6367C49.0352 23.2148 49.2149 20.9492 50.8086 19.8242C51.0313 19.6875 51.2227 19.5664 51.3867 19.457Z" fill="#AE6D55"/>
<path fill-rule="evenodd" clip-rule="evenodd" d="M39.6641 74.3906V74.3047C39.8672 73.7852 40.0742 73.2695 40.2812 72.7461C40.082 73.3008 39.875 73.8438 39.6641 74.3906ZM45.1953 47.9297L43.3359 45.3008C43.1445 45.0664 42.9453 44.8398 42.7383 44.625C42.9609 44.8477 43.1875 45.0742 43.418 45.3008L45.1953 47.9297Z" fill="#ACC6E8"/>
<path fill-rule="evenodd" clip-rule="evenodd" d="M62.4766 91.1875C62.4219 91.0703 62.3594 90.9688 62.2891 90.8789C62.3008 90.8945 62.3164 90.9062 62.3281 90.9219C62.3984 90.9883 62.4531 91.0703 62.4961 91.168L62.4766 91.1875ZM43.418 45.3008C43.1875 45.0742 42.9609 44.8477 42.7383 44.625C42.5664 44.4375 42.3906 44.2539 42.2227 44.0703C41.9063 43.7617 41.5742 43.4688 41.2305 43.1875C42.0273 43.8086 42.7578 44.5117 43.418 45.3008ZM50.1484 97.1797L50.5195 97.4414C52.8594 99.3594 55.2695 99.7422 57.7461 98.5938L57.9102 98.1211L57.9531 98.1406L57.832 98.5938C55.3242 99.7695 52.9023 99.3984 50.5625 97.4844L50.1484 97.1797Z" fill="#F2F8FD"/>
<path fill-rule="evenodd" clip-rule="evenodd" d="M45.4453 48.5859C45.3711 48.5117 45.3281 48.4219 45.3203 48.3164C45.3242 48.3672 45.3672 48.4297 45.4453 48.5V48.5859Z" fill="#D5ECF6"/>
<path fill-rule="evenodd" clip-rule="evenodd" d="M83.6367 110.879C83.418 110.867 83.1953 110.809 82.9727 110.695L72.4453 105.359C72.6563 105.23 72.8047 105.078 72.8984 104.914C72.9844 104.801 73.0234 104.68 73.0234 104.543C73.0234 104.406 72.832 104.105 72.4453 103.637C71.7578 102.82 71.1797 102.082 70.7109 101.422V100.973C70.9062 101.055 71.125 101.164 71.3711 101.301C71.9219 101.602 72.5859 101.984 73.3516 102.449C73.8789 102.777 74.3047 102.941 74.6367 102.941C74.9375 102.941 75.2539 102.762 75.582 102.406C75.6406 102.383 75.6797 102.355 75.707 102.324C75.9844 101.996 76.1211 101.684 76.1211 101.383C76.1211 101.324 76.1094 101.266 76.0781 101.195L83.5938 104.992C83.7891 105.102 84.0469 105.074 84.3789 104.914L87.7656 103.125L83.7188 110.695C83.6797 110.77 83.6484 110.828 83.6367 110.879ZM88.5898 85.75C88.6719 85.6992 88.6719 85.6445 88.5898 85.5898L82.8086 82.6758C82.6992 82.6211 82.6016 82.6211 82.5195 82.6758L74.3867 86.9844C74.3047 87.0117 74.3164 87.0508 74.4258 87.1055L80.207 90.0195C80.2891 90.0742 80.375 90.0898 80.457 90.0586L88.5898 85.75ZM98.9141 82.2656C98.8711 82.3281 98.8281 82.3945 98.7891 82.4727L98.7656 82.4922C98.6289 82.0625 98.5547 81.8125 98.543 81.7344L98.418 81.1992V81.1602C98.418 81.1875 98.4453 81.2109 98.5 81.2383C98.5234 81.3242 98.5547 81.4023 98.582 81.4883L98.9141 82.2656ZM96.6211 84.7266L80.5781 93.2188C79.8906 93.0078 79.1016 92.7891 78.2266 92.5625C74.2891 91.5781 71.2891 91.0859 69.2227 91.0859C68.1523 91.0859 66.8555 91.2891 65.3438 91.7031C64.4375 91.9766 63.832 92.168 63.5273 92.2773L63.3203 92.3164C63.2148 92.3164 62.9375 92.207 62.4961 91.9883L62.5391 91.3711C62.5156 91.3047 62.4961 91.2461 62.4766 91.1875L62.4961 91.168L87.332 78.0586L88.6133 77.3867L89.3711 76.9727L91.4375 75.8867C91.2617 76.3828 91.0664 76.7734 90.8594 77.0547C90.7773 77.2734 90.6836 77.5195 90.5742 77.793C90.3242 78.4219 90.1445 78.9414 90.0352 79.3516C89.8984 79.7109 89.8281 79.9414 89.8281 80.0508C89.8281 80.707 90.3945 81.7617 91.5195 83.2109C92.6523 84.6328 93.4219 85.3438 93.8359 85.3438C94.1914 85.3438 94.4805 85.2344 94.7031 85.0117C94.8125 84.875 94.9063 84.7109 94.9883 84.5234C95.1016 84 95.1562 83.7266 95.1562 83.6992C95.1562 83.5625 95.043 83.2344 94.8242 82.7148C94.5234 82.1406 94.1914 81.6211 93.8359 81.1602L94.9062 80.75C95.1992 81.3047 95.7695 82.6328 96.6211 84.7266Z" fill="#54C8AA"/>
<path fill-rule="evenodd" clip-rule="evenodd" d="M89.043 108.395L86.1133 109.938L84.0078 111.066C83.6367 111.25 83.5117 111.188 83.6367 110.879C83.6484 110.828 83.6797 110.77 83.7188 110.695L87.7656 103.125L97.9648 84.0273L98.7656 82.4922L98.7891 82.4727C98.8281 82.3945 98.8711 82.3281 98.9141 82.2656C99.082 82.0039 99.2891 81.793 99.5312 81.6289C99.6211 81.5586 99.7188 81.4961 99.8203 81.4453L101.719 80.4414L102.586 79.9688L105.703 78.3281L140.613 59.9063C141.027 59.6602 141.109 59.7695 140.859 60.2383L125.793 88.4609C125.543 88.9258 125.211 89.2813 124.801 89.5273L116.75 93.7734L111.875 96.3555L111.176 96.7266L89.043 108.395Z" fill="#40AF92"/>
<path fill-rule="evenodd" clip-rule="evenodd" d="M88.5898 85.75L80.457 90.0586C80.375 90.0898 80.2891 90.0742 80.207 90.0195L74.4258 87.1055C74.3164 87.0508 74.3047 87.0117 74.3867 86.9844L82.5195 82.6758C82.6016 82.6211 82.6992 82.6211 82.8086 82.6758L88.5898 85.5898C88.6719 85.6445 88.6719 85.6992 88.5898 85.75ZM80.5781 93.2188L96.6211 84.7266L97.4453 84.2969L97.9648 84.0273L87.7656 103.125L84.3789 104.914C84.0469 105.074 83.7891 105.102 83.5938 104.992L76.0781 101.195C75.8359 100.668 74.6641 99.7852 72.5703 98.5508C72.5977 98.4961 72.625 98.4414 72.6523 98.3867C72.9258 97.9766 73.1641 97.7188 73.3516 97.6094C73.4922 97.5 73.6836 97.4414 73.9297 97.4414C74.7578 97.4414 75.3516 97.5547 75.707 97.7734C75.9297 97.9102 76.1758 98.1406 76.4492 98.4688C76.6172 98.6055 76.8906 98.9492 77.2773 99.4961C77.6367 99.9609 77.8281 100.191 77.8555 100.191C78.2383 100.191 78.5156 100.152 78.6797 100.07C78.9023 99.9883 79.0625 99.7969 79.1758 99.4961C79.2305 99.3867 79.2734 99.2891 79.3008 99.207C79.5195 98.582 79.6289 98.25 79.6289 98.2227C79.6289 98.0859 79.5898 97.9102 79.5039 97.6914C79.2031 97.0898 78.8594 96.3906 78.4727 95.5977C78.4727 95.543 78.4609 95.5039 78.4336 95.4766C79.7539 95.6914 80.8008 95.9648 81.5703 96.293C82.1758 96.5664 82.7148 96.707 83.1797 96.707C83.5391 96.707 83.8398 96.6094 84.0898 96.418C84.418 96.2266 84.5859 95.9258 84.5859 95.5156C84.5859 94.8242 83.25 94.0586 80.5781 93.2188Z" fill="#348671"/>
</svg>
