<?xml version="1.0" encoding="UTF-8"?>
<svg xmlns="http://www.w3.org/2000/svg" xmlns:xlink="http://www.w3.org/1999/xlink" width="125pt" height="161pt" viewBox="0 0 125 161" version="1.1">
<g id="surface1">
<path style=" stroke:none;fill-rule:evenodd;fill:rgb(0%,0%,0%);fill-opacity:1;" d="M 19.476562 7.179688 C 18.152344 4.890625 18.9375 1.964844 21.230469 0.640625 C 23.523438 -0.679688 26.457031 0.105469 27.78125 2.394531 L 37.960938 19.996094 C 38.09375 20.019531 38.226562 20.050781 38.359375 20.085938 L 61.789062 26.351562 C 64.34375 27.039062 65.863281 29.660156 65.179688 32.214844 C 64.492188 34.769531 61.863281 36.285156 59.304688 35.597656 L 38.152344 29.941406 L 32.488281 51.039062 C 31.804688 53.59375 29.175781 55.109375 26.617188 54.425781 C 24.058594 53.738281 22.542969 51.117188 23.226562 48.5625 L 29.503906 25.175781 C 29.542969 25.03125 29.585938 24.886719 29.640625 24.75 Z M 69.136719 83.554688 C 78.375 78.230469 81.539062 66.433594 76.207031 57.210938 C 70.871094 47.984375 59.054688 44.824219 49.816406 50.148438 C 40.574219 55.476562 37.410156 67.269531 42.746094 76.496094 C 48.078125 85.71875 59.894531 88.878906 69.136719 83.554688 Z M 64.140625 75.101562 C 68.710938 72.46875 70.277344 66.632812 67.636719 62.066406 C 64.996094 57.503906 59.152344 55.941406 54.578125 58.574219 C 50.007812 61.210938 48.441406 67.042969 51.082031 71.609375 C 53.722656 76.171875 59.566406 77.738281 64.140625 75.101562 Z M 36.054688 80.4375 C 41.386719 89.660156 38.222656 101.453125 28.984375 106.78125 C 19.742188 112.105469 7.925781 108.945312 2.59375 99.71875 C -2.742188 90.496094 0.421875 78.699219 9.660156 73.375 C 18.902344 68.050781 30.71875 71.210938 36.054688 80.4375 Z M 27.410156 85.128906 C 30.050781 89.691406 28.484375 95.527344 23.910156 98.160156 C 19.339844 100.796875 13.496094 99.230469 10.855469 94.667969 C 8.214844 90.105469 9.78125 84.269531 14.351562 81.632812 C 18.925781 79 24.769531 80.5625 27.410156 85.128906 Z M 72.46875 132.675781 C 81.710938 127.351562 84.875 115.554688 79.539062 106.332031 C 74.207031 97.105469 62.390625 93.945312 53.148438 99.269531 C 43.910156 104.59375 40.746094 116.390625 46.078125 125.613281 C 51.414062 134.839844 63.230469 138 72.46875 132.675781 Z M 67.324219 124.003906 C 71.898438 121.367188 73.460938 115.53125 70.824219 110.96875 C 68.183594 106.40625 62.335938 104.84375 57.765625 107.476562 C 53.195312 110.109375 51.628906 115.945312 54.269531 120.511719 C 56.90625 125.074219 62.753906 126.636719 67.324219 124.003906 Z M 119.828125 132.070312 C 125.164062 141.292969 122 153.089844 112.757812 158.414062 C 103.519531 163.738281 91.703125 160.578125 86.367188 151.351562 C 81.03125 142.128906 84.199219 130.332031 93.4375 125.007812 C 102.675781 119.683594 114.492188 122.84375 119.828125 132.070312 Z M 111.25 136.867188 C 113.890625 141.429688 112.324219 147.265625 107.75 149.898438 C 103.179688 152.535156 97.335938 150.96875 94.695312 146.40625 C 92.054688 141.84375 93.621094 136.007812 98.191406 133.371094 C 102.765625 130.738281 108.609375 132.300781 111.25 136.867188 Z M 112.769531 109.449219 C 122.011719 104.125 125.175781 92.328125 119.839844 83.105469 C 114.503906 73.882812 102.6875 70.71875 93.449219 76.042969 C 84.210938 81.371094 81.042969 93.164062 86.378906 102.390625 C 91.714844 111.613281 103.53125 114.773438 112.769531 109.449219 Z M 107.949219 100.945312 C 112.523438 98.308594 114.089844 92.472656 111.449219 87.910156 C 108.808594 83.347656 102.964844 81.78125 98.390625 84.417969 C 93.820312 87.050781 92.253906 92.886719 94.894531 97.449219 C 97.535156 102.015625 103.378906 103.578125 107.949219 100.945312 Z M 116.503906 33.984375 C 121.839844 43.210938 118.675781 55.003906 109.433594 60.328125 C 100.195312 65.65625 88.378906 62.492188 83.042969 53.269531 C 77.707031 44.042969 80.875 32.25 90.113281 26.925781 C 99.355469 21.601562 111.167969 24.761719 116.503906 33.984375 Z M 107.863281 38.609375 C 110.503906 43.175781 108.9375 49.011719 104.367188 51.644531 C 99.792969 54.28125 93.949219 52.714844 91.308594 48.152344 C 88.667969 43.589844 90.234375 37.753906 94.808594 35.117188 C 99.378906 32.484375 105.222656 34.046875 107.863281 38.609375 Z M 107.863281 38.609375 "/>
</g>
</svg>
